HIERARCHY
ROOT Hips
{
	OFFSET 0.000000 0.000000 0.000000 
	CHANNELS 6 Xposition Yposition Zposition Zrotation Yrotation Xrotation
	JOINT LeftUpLeg
	{
		OFFSET 1.363060 -1.794630 0.839290 
		CHANNELS 3 Zrotation Yrotation Xrotation
		JOINT LeftLeg
		{
			OFFSET 2.448110 -6.726130 0.000000 
			CHANNELS 3 Zrotation Yrotation Xrotation
			JOINT LeftFoot
			{
				OFFSET 2.562200 -7.039590 0.000000 
				CHANNELS 3 Zrotation Yrotation Xrotation
				JOINT LeftToeBase
				{
					OFFSET 0.157640 -0.433110 2.322550 
					CHANNELS 3 Zrotation Yrotation Xrotation
					End Site
					{
						OFFSET 0.000000 0.000000 0.000000 
					}
				}
			}
		}
	}
	JOINT RightUpLeg
	{
		OFFSET -1.305520 -1.794630 0.839290 
		CHANNELS 3 Zrotation Yrotation Xrotation
		JOINT RightLeg
		{
			OFFSET -2.542530 -6.985550 0.000000 
			CHANNELS 3 Zrotation Yrotation Xrotation
			JOINT RightFoot
			{
				OFFSET -2.568260 -7.056230 0.000000 
				CHANNELS 3 Zrotation Yrotation Xrotation
				JOINT RightToeBase
				{
					OFFSET -0.164730 -0.452590 2.363150 
					CHANNELS 3 Zrotation Yrotation Xrotation
					End Site
					{
						OFFSET 0.000000 0.000000 0.000000 
					}
				}
			}
		}
	}
	JOINT Spine
	{
		OFFSET 0.028270 2.035590 -0.193380 
		CHANNELS 3 Zrotation Yrotation Xrotation
		JOINT Spine1
		{
			OFFSET 0.056720 2.048850 -0.042750 
			CHANNELS 3 Zrotation Yrotation Xrotation
			JOINT Neck1
			{
				OFFSET -0.054170 1.746240 0.172020 
				CHANNELS 3 Zrotation Yrotation Xrotation
				JOINT Head
				{
					OFFSET 0.104070 1.761360 -0.123970 
					CHANNELS 3 Zrotation Yrotation Xrotation
					End Site
					{
						OFFSET 0.000000 0.000000 0.000000 
					}
				}
			}
			JOINT LeftArm
			{
				OFFSET 3.362410 1.200890 -0.311210 
				CHANNELS 3 Zrotation Yrotation Xrotation
				JOINT LeftForeArm
				{
					OFFSET 4.983000 -0.000000 -0.000000 
					CHANNELS 3 Zrotation Yrotation Xrotation
					JOINT LeftHand
					{
						OFFSET 3.483560 -0.000000 -0.000000 
						CHANNELS 3 Zrotation Yrotation Xrotation
						JOINT LeftHandIndex1
						{
							OFFSET 0.715260 -0.000000 -0.000000 
							CHANNELS 3 Zrotation Yrotation Xrotation
							End Site
							{
								OFFSET 0.000000 0.000000 0.000000 
							}
						}
					}
				}
			}
			JOINT RightArm
			{
				OFFSET -3.136600 1.374050 -0.404650 
				CHANNELS 3 Zrotation Yrotation Xrotation
				JOINT RightForeArm
				{
					OFFSET -5.241900 -0.000000 -0.000000 
					CHANNELS 3 Zrotation Yrotation Xrotation
					JOINT RightHand
					{
						OFFSET -3.444170 -0.000000 -0.000000 
						CHANNELS 3 Zrotation Yrotation Xrotation
						JOINT RightHandIndex1
						{
							OFFSET -0.622530 -0.000000 -0.000000 
							CHANNELS 3 Zrotation Yrotation Xrotation
							End Site
							{
								OFFSET 0.000000 0.000000 0.000000 
							}
						}
					}
				}
			}
		}
	}
}
MOTION
Frames: 17
Frame Time: 0.041667
4.865673 17.895115 -29.509833 0.575390 2.733430 2.162981 -17.871434 -7.975349 3.801533 0.611944 7.022528 28.693026 2.525900 -11.052057 17.983569 0.487400 -4.476700 -12.421700 14.251433 12.781417 -29.214527 -0.055822 -7.155323 21.831001 1.609895 -9.734142 18.461483 -0.193300 -2.831100 7.808700 3.872709 -3.685158 2.953967 3.765687 -2.199629 -6.613239 2.932477 -4.346681 16.236408 -0.427600 -1.848100 9.423100 -77.995824 -4.118795 29.755093 15.664710 -25.876009 -4.018730 -0.791926 -1.065864 -6.718418 -7.125000 0.000000 0.000000 75.083279 -0.739566 -0.407525 -7.193058 16.917791 -1.360493 1.263883 -0.762653 10.542163 7.125000 0.000000 0.000000 
4.844068 17.935398 -29.296711 0.243055 2.596127 2.124494 -17.387949 -7.138439 2.798036 0.985634 7.598232 30.673773 2.685685 -12.355870 20.741060 1.425200 -7.549100 -21.352700 14.997066 12.505080 -28.846027 -0.124621 -7.244439 22.299795 1.467119 -9.280688 18.595728 -0.307800 -3.566800 9.861000 3.976906 -3.551929 2.882615 3.719604 -2.125275 -6.785881 2.753552 -4.324121 16.441864 -0.518100 -1.837000 9.540300 -78.210617 -3.745453 29.466557 15.508225 -25.636874 -3.957245 -0.822006 -0.882233 -6.542018 -7.125000 0.000000 0.000000 75.136151 -0.748660 -1.288298 -7.052198 16.658887 -1.314547 1.265566 -0.757051 11.357963 7.125000 0.000000 0.000000 
4.820444 17.966594 -29.086516 0.274384 2.506731 2.049810 -17.044814 -6.960720 1.439789 1.310627 8.098232 31.798850 2.506981 -8.409961 30.517054 0.007600 -0.561200 -1.542100 15.181779 12.493624 -28.464184 -0.229585 -7.405508 22.923148 1.342173 -8.830552 18.536840 -0.431300 -4.214600 11.681100 4.156725 -3.588800 2.255606 4.121148 -2.100786 -7.632859 2.994694 -4.134642 16.525340 -0.305000 -1.764800 9.345100 -78.656669 -2.098856 29.198421 15.544487 -25.688914 -3.977650 -0.795554 -0.861509 -6.653815 -7.125000 0.000000 0.000000 74.759108 -2.010982 -1.192758 -6.998559 16.651674 -1.306677 1.281283 -0.725088 11.380266 7.125000 0.000000 0.000000 
4.801161 17.988401 -28.882985 0.217575 2.571581 1.899655 -16.742428 -7.026476 0.698042 1.725110 8.665486 33.535961 2.680504 -8.504095 33.132587 0.033300 1.177600 3.237700 15.509419 12.310216 -28.010640 -0.332267 -7.546165 23.534109 1.254050 -8.393133 18.186976 -0.368600 -3.899600 10.794400 3.966195 -3.386361 3.144963 3.856071 -2.025752 -6.785712 2.728423 -4.521520 17.347337 -0.589300 -1.886400 10.226000 -78.478071 -3.789933 29.532611 15.416996 -25.513396 -3.900166 -0.762471 -1.023476 -6.984352 -7.125000 0.000000 0.000000 75.307552 -0.059501 -2.376446 -6.936067 16.401417 -1.281551 1.240160 -0.754871 11.759931 7.125000 0.000000 0.000000 
4.782584 18.036053 -28.682381 0.101771 2.577175 1.697567 -16.562017 -6.192042 -1.072727 2.013898 9.140642 35.229474 3.090680 -10.764913 36.062873 0.059800 -1.577300 -4.338900 15.891561 12.155280 -27.428228 -0.432949 -7.649186 24.046858 1.241149 -8.185557 17.857000 -0.567300 -4.823900 13.406900 4.005715 -3.441252 2.961797 3.859731 -2.025040 -7.046156 2.667944 -4.440252 17.014416 -0.586000 -1.872500 9.939900 -78.613713 -2.961106 29.600162 15.439056 -25.577851 -3.904874 -0.758291 -1.141852 -7.338070 -7.125000 0.000000 0.000000 75.192780 -0.637067 -1.887727 -6.936185 16.447000 -1.290075 1.237503 -0.727027 11.538546 7.125000 0.000000 0.000000 
4.766734 18.033529 -28.489854 -0.098117 2.446525 1.530089 -16.241795 -6.068161 -1.508914 2.499011 9.730737 37.335339 3.251618 -11.986900 37.617442 0.117900 -2.213900 -6.097100 16.370740 12.236140 -26.839513 -0.534566 -7.725520 24.443661 1.319209 -8.327886 17.754008 -0.772700 -5.612900 15.665100 3.928156 -3.349463 3.046770 3.605609 -1.982438 -6.993605 2.771207 -4.325529 17.102947 -0.567800 -1.788900 10.026100 -78.542357 -2.665892 29.652128 15.392876 -25.528100 -3.883863 -0.758864 -1.157259 -7.309857 -7.125000 0.000000 0.000000 75.397328 -0.742909 -1.715966 -6.968385 16.499901 -1.300607 1.235578 -0.717522 11.247229 7.125000 0.000000 0.000000 
4.748864 18.057557 -28.299952 -0.485798 2.022714 1.332216 -15.681627 -6.019766 -2.771415 3.220744 10.438696 39.160442 3.433442 -9.278651 41.121145 0.089300 1.927300 5.304700 17.023554 12.512397 -26.073104 -0.592199 -7.704672 24.653498 1.358795 -8.265825 17.460165 -0.866900 -5.936700 16.601000 3.873003 -3.058245 3.405325 3.257692 -1.845372 -6.621681 2.967126 -4.819455 17.307118 -0.556500 -1.987800 10.152900 -78.381486 -3.023737 29.957105 15.337299 -25.453998 -3.855394 -0.740285 -1.200507 -7.146811 -7.125000 0.000000 0.000000 75.669782 -0.359078 -1.640723 -7.008918 16.543280 -1.309759 1.210675 -0.760867 10.951833 7.125000 0.000000 0.000000 
4.733418 18.086734 -28.113281 -0.847173 1.669117 1.275552 -15.286035 -5.954463 -4.069246 3.699989 11.019275 41.285905 3.573850 -10.794073 41.968616 0.009400 -0.627100 -1.723300 17.692489 12.725548 -25.448050 -0.628748 -7.666484 24.835418 1.343067 -7.967984 16.891947 -0.774200 -5.618100 15.680300 3.913488 -2.918793 3.486095 3.038700 -1.769538 -6.498355 2.920065 -5.006888 17.284828 -0.597700 -2.079600 10.105300 -78.355192 -2.821708 30.104114 15.426373 -25.584080 -3.895990 -0.725059 -1.242101 -7.106219 -7.125000 0.000000 0.000000 75.688166 -0.269773 -1.259480 -6.972129 16.496979 -1.292995 1.168890 -0.849788 10.658336 7.125000 0.000000 0.000000 
4.722817 18.127622 -27.925801 -1.275014 1.483442 1.253132 -14.717807 -5.804953 -5.509718 4.305773 11.632039 43.109687 4.156933 -11.258254 46.850103 0.126300 2.291200 6.311100 18.346852 12.762074 -24.831114 -0.625247 -7.592050 24.858421 1.202155 -7.524885 17.130666 -0.221300 -3.028300 8.357500 4.186144 -2.955309 2.975378 3.082355 -1.768636 -7.115508 3.173387 -4.668412 17.119574 -0.348600 -1.953500 9.779100 -78.789485 -1.360820 29.895523 15.524474 -25.724841 -3.945330 -0.729353 -1.204810 -7.045220 -7.125000 0.000000 0.000000 75.187531 -1.189285 -0.613692 -6.856672 16.391805 -1.259685 1.152728 -0.890638 10.832035 7.125000 0.000000 0.000000 
4.714438 18.156900 -27.740443 -1.755115 1.175222 1.160586 -14.177906 -5.533662 -6.953110 5.089579 12.272721 44.934545 4.645186 -9.989133 50.214191 0.473600 4.413400 12.242700 19.087755 12.852143 -24.150503 -0.639367 -7.534744 24.966527 1.130676 -7.106146 16.695201 -0.184600 -2.767000 7.630700 4.625287 -2.984589 2.285611 3.356572 -1.754819 -8.068175 3.357138 -4.134190 17.019477 -0.074200 -1.755900 9.424300 -79.375468 0.399405 29.591915 15.475887 -25.664969 -3.925937 -0.732902 -1.161313 -6.838692 -7.125000 0.000000 0.000000 74.367307 -2.683538 1.246205 -6.926943 16.662778 -1.298574 1.182649 -0.826458 9.974652 7.125000 0.000000 0.000000 
4.704140 18.174971 -27.554882 -1.898254 0.769344 1.202191 -14.083039 -5.358542 -8.398146 5.739180 12.822402 46.829785 4.767860 -9.466177 50.967037 0.459200 4.347100 12.055200 19.405625 13.138994 -23.496580 -0.668012 -7.486914 25.069153 1.132871 -6.907335 16.185849 -0.293300 -3.482800 9.625900 3.956533 -2.127641 3.508075 2.310982 -1.372720 -6.865289 2.948701 -5.190044 18.398906 -0.676800 -2.086100 10.805600 -78.258929 -2.719759 31.418372 14.971257 -24.962579 -3.691084 -0.751978 -1.145921 -6.751592 -7.125000 0.000000 0.000000 75.784602 0.238993 -0.616265 -6.969940 16.479848 -1.292619 1.153586 -0.848078 10.552615 7.125000 0.000000 0.000000 
4.687078 18.191427 -27.372450 -1.923292 0.456010 1.069227 -14.086050 -5.159866 -9.573427 6.249209 13.281803 48.788853 4.597373 -9.880010 50.026124 0.352900 3.816500 10.561000 19.647241 13.326698 -22.700262 -0.721946 -7.470857 25.186933 1.278364 -7.192768 15.784207 -0.375400 -3.935300 10.894800 3.642644 -1.736960 4.088960 1.926244 -1.177884 -6.381356 2.787835 -5.649650 19.002721 -0.958800 -2.210300 11.430800 -77.764976 -3.897816 32.190865 14.827159 -24.773705 -3.621640 -0.742632 -1.223936 -6.553601 -7.125000 0.000000 0.000000 76.374356 1.873930 -1.897387 -6.773595 16.017952 -1.211649 1.121955 -0.924627 11.604514 7.125000 0.000000 0.000000 
4.674155 18.208388 -27.196783 -2.156762 0.323677 0.989571 -13.862994 -5.155742 -10.786655 6.673182 13.708968 50.756927 4.212720 -10.664434 47.615505 0.212800 2.969600 8.194300 20.130316 13.443372 -22.030224 -0.775233 -7.465178 25.397587 1.356154 -7.150780 14.848966 -0.265300 -3.313600 9.153000 3.599869 -1.518484 4.415224 1.731615 -1.061072 -6.127807 2.751567 -5.856573 19.299367 -1.072700 -2.260100 11.771300 -77.706833 -4.391311 32.399516 14.795545 -24.749226 -3.601878 -0.720732 -1.390255 -5.845347 -7.125000 0.000000 0.000000 76.481603 2.850301 -2.138646 -6.688431 15.825719 -1.181768 1.083670 -0.970596 12.086529 7.125000 0.000000 0.000000 
4.660021 18.223128 -27.023136 -2.289318 0.232802 0.838727 -13.771684 -5.116295 -12.048023 7.170759 14.122932 52.629636 3.677369 -10.114978 43.751463 0.125900 2.287400 6.300500 20.496158 13.509386 -21.345499 -0.823411 -7.467667 25.617121 1.395540 -7.020479 13.913580 -0.221900 -3.032500 8.369400 3.716022 -1.470124 4.370949 1.792667 -1.020835 -6.256670 2.809249 -5.764246 19.084217 -0.996900 -2.242400 11.596400 -78.041787 -4.030444 31.935486 14.704923 -24.624567 -3.561043 -0.743826 -1.381592 -4.999204 -7.125000 0.000000 0.000000 76.218503 2.789694 -1.231792 -6.702758 15.883674 -1.186784 1.084626 -0.972849 11.974366 7.125000 0.000000 0.000000 
4.649421 18.226763 -26.848680 -2.444686 0.131020 0.678275 -13.690177 -5.013232 -13.330062 7.725755 14.518821 54.326731 3.109054 -8.577530 39.419024 0.223900 3.045700 8.406000 20.886360 13.402474 -20.674518 -0.845591 -7.449639 25.758572 1.356890 -6.730557 13.222464 -0.176100 -2.702900 7.452700 4.063509 -1.616495 3.777328 2.066547 -1.069851 -6.855856 3.120374 -5.343496 18.048332 -0.614100 -2.160800 10.633500 -78.827618 -2.298544 30.842435 14.607376 -24.470134 -3.524171 -0.805647 -1.164010 -4.179688 -7.125000 0.000000 0.000000 75.425467 1.330981 0.618782 -6.799360 16.182321 -1.234911 1.121197 -0.887067 11.544575 7.125000 0.000000 0.000000 
4.645281 18.231104 -26.672811 -2.550454 0.081976 0.679869 -13.674441 -4.984075 -14.633620 8.170261 14.850443 55.837648 2.611655 -8.053506 34.949490 0.380000 3.959000 10.961300 21.152723 13.341856 -20.094148 -0.848454 -7.409217 25.765309 1.382351 -6.677039 12.663614 -0.209400 -2.945900 8.128300 4.956853 -2.323197 2.286815 3.180950 -1.352387 -8.339863 3.605448 -3.961921 16.447087 0.120700 -1.709700 8.999900 -80.555418 1.567385 28.452160 14.658839 -24.536988 -3.556071 -0.879513 -0.990284 -3.828984 -7.125000 0.000000 0.000000 73.422755 -2.001617 4.485856 -6.877713 16.645894 -1.288029 1.173210 -0.801061 10.379000 7.125000 0.000000 0.000000 
4.638214 18.249074 -26.498861 -2.733564 -0.013546 0.583049 -13.545645 -5.027997 -15.817344 8.578806 15.154081 57.056545 2.111839 -7.044685 29.992742 0.670700 5.237200 14.586200 21.492954 13.343630 -19.310575 -0.841519 -7.325429 25.683182 1.452091 -6.725938 11.994780 -0.383000 -3.974400 11.004600 4.521592 -1.839220 2.918337 2.384722 -1.142225 -7.790779 3.567607 -4.598079 17.063495 -0.122700 -1.916700 9.638300 -79.995558 0.141142 29.294674 14.435684 -24.223298 -3.460348 -0.924321 -0.921292 -4.343274 -7.125000 0.000000 0.000000 74.199151 -0.424885 3.744181 -6.909790 16.569101 -1.288161 1.146725 -0.826168 10.518861 7.125000 0.000000 0.000000 
